<?xml version="1.0" encoding="utf-8" ?>	<!-- Generator: Assembly 2.4 - http://assemblyapp.co -->	<svg version="1.1" xmlns="http://www.w3.org/2000/svg" xmlns:xlink="http://www.w3.org/1999/xlink" width="4096.00" height="4096.00" viewBox="0 0 4096.0 4096.0">		<g id="document" transform="scale(1.0 1.0) translate(2048.0 2048.0)">			<path d="M789.296,679.723 C311.416,1212.5 -652.969,1461.2 -876.234,679.723 C-1116.6,-161.616 513.958,-1391.82 789.296,-1490.56 C900.379,-1530.4 1117.53,-1588.36 1187.98,-1490.56 C1187.98,-1294.4 1320.55,-1247.16 1382.8,-1247.16 C1440.39,-1247.16 1612.51,-1322.76 1503.84,-1490.56 C1468.64,-1544.92 1338.64,-1761.47 1049.75,-1761.47 C760.865,-1761.47 599.842,-1711.81 200.084,-1490.56 C-1072.59,-786.199 -1551.27,28.1191 -1551.27,679.723 C-1551.27,1773.4 -350.428,2162.55 338.315,1259.83 C576.579,947.548 1049.75,729.437 1049.75,1259.83 C1049.75,1334.72 1047.99,1559.87 1187.98,1559.87 C1250.21,1559.87 1349.27,1532.97 1349.27,1259.83 C1349.27,1144.02 1376.79,24.7394 789.296,679.723 Z " fill="#f6f4e1" fill-opacity="1.00" />		</g>	</svg>