<?xml version="1.0" encoding="utf-8" ?>		<svg version="1.1" xmlns="http://www.w3.org/2000/svg" xmlns:xlink="http://www.w3.org/1999/xlink" width="4096.00" height="4096.00" viewBox="0 0 4096.0 4096.0">		<g id="document" transform="scale(1.0 1.0) translate(2048.0 2048.0)">			<path d="M363.856,316.141 C141.608,563.921 -306.901,679.584 -410.735,316.141 C-522.524,-75.1428 235.804,-647.276 363.856,-693.198 C415.518,-711.725 516.507,-738.682 549.274,-693.198 C549.274,-601.968 610.927,-579.997 639.878,-579.997 C666.661,-579.997 746.708,-615.157 696.172,-693.198 C679.801,-718.48 619.341,-819.192 484.987,-819.192 C350.634,-819.192 275.747,-796.093 89.8304,-693.198 C-502.057,-365.619 -724.675,13.0975 -724.675,316.141 C-724.675,824.778 -166.198,1005.76 154.117,585.934 C264.928,440.698 484.987,339.261 484.987,585.934 C484.987,620.762 484.168,725.47 549.274,725.47 C578.214,725.47 624.286,712.963 624.286,585.934 C624.286,532.071 637.083,11.5257 363.856,316.141 Z " fill="#f6f4e1" fill-opacity="1.00" />		</g>	</svg>